<svg xmlns="http://www.w3.org/2000/svg" fill="none" viewBox="0 0 48 48">
  <path fill="#E5EAD0" fill-rule="evenodd" d="M24 38.14a12.08 12.08 0 10-10.1-5.46 5.77 5.77 0 017.26 5.13c.9.22 1.86.33 2.84.33z" clip-rule="evenodd"/>
  <path fill="#3C5142" d="M18.1 39.4c0 .55-.21.98-.62 1.3-.4.3-1 .46-1.78.5v.8h-.54v-.8a2.99 2.99 0 01-1.67-.46c-.4-.3-.66-.73-.79-1.32l1.28-.22c.07.35.19.6.37.76.19.16.46.26.8.29v-1.8s-.02-.02-.06-.02a4.47 4.47 0 01-1.3-.41 1.91 1.91 0 01-.65-.6 1.66 1.66 0 01-.22-.87c0-.5.2-.9.57-1.18.38-.28.94-.44 1.67-.47v-.61h.54v.61c.43.02.8.08 1.08.2.3.1.53.27.7.5.18.2.33.51.44.92l-1.31.18a1.12 1.12 0 00-.3-.62.98.98 0 00-.61-.27v1.62h.05c.1 0 .4.08.88.23.5.15.86.37 1.1.65.24.3.36.65.36 1.08zm-2.94-3.61c-.62.04-.93.29-.93.74 0 .13.02.25.07.34.06.08.13.15.23.21.1.07.31.15.63.24V35.8zm1.63 3.63a.74.74 0 00-.08-.38.63.63 0 00-.26-.24 4.58 4.58 0 00-.75-.25v1.7c.73-.05 1.1-.32 1.1-.83z"/>
  <path fill="#2E2E2E" fill-rule="evenodd" d="M25.05 26.89l7.54 2.97-.75 1.91-8.2-3.23-.64-.25v-.7l.02-12.6 2.06.01-.03 11.89z" clip-rule="evenodd"/>
  <path fill="#3C5142" fill-rule="evenodd" d="M17.27 15.37l1.14 2 .9-.52-1.15-2-.89.52zm-2.43 5.91l-1.98-1.16.52-.89 1.98 1.17-.52.88zm-3.43 5.13l2.3.02.01-1.03-2.3-.02v1.03zm22.74-.93h2.3v1.03h-2.3v-1.03zM29.5 34.6l1.15 1.99-.88.52-1.16-2 .89-.51zm-5.09 3.93v-2.3h-1.02v2.3h1.02zm-9.08-7l-1.99 1.15-.51-.9 2-1.14.5.89zM28.66 16.9l1.17-1.98.88.52-1.17 1.98-.88-.52zm5.91 2.46l-2 1.14.51.9 2-1.14-.5-.9z" clip-rule="evenodd"/>
  <path fill="#2E2E2E" fill-rule="evenodd" d="M24 12.43a13.62 13.62 0 00-12.31 19.44l-1.86.87a15.67 15.67 0 1114.17 9c-.52 0-1.03-.02-1.54-.07l.2-2.05A13.62 13.62 0 1024 12.42z" clip-rule="evenodd"/>
  <path fill="#2E2E2E" d="M27.85 5h-7.7v2.57h7.7V5z"/>
</svg>
