<svg xmlns="http://www.w3.org/2000/svg" fill="none" viewBox="0 0 48 48">
  <path fill="#A9C038" d="M14 9h20v30l-10-8.01L14 39V9z" opacity=".35"/>
  <path fill="#2E2E2E" fill-rule="evenodd" d="M23.66 11h11.22L42 21.65H19.75l5.6 17.7.79-1.09 1.52 1.16L25.04 43 7 20.8l2.54-4.9 1.68.9-1.5 2.92h6.93l-1.9-2.82 1.58-1.09 2.11 3.15L23.66 11zm-5.9 10.65h-7.6l12.43 15.3-4.83-15.3zm2.47-1.93l3.9-5.95 3.52 5.95h-7.42zm10.76 0h7.42l-3.98-5.95L31 19.72zm1.72-6.79h-6.86l3.47 5.87 3.4-5.87z" clip-rule="evenodd"/>
  <path fill="#3C5142" fill-rule="evenodd" d="M35.78 24.63l.33 4.49 4.27 2-4.32 1.68-.17 4.32-3.13-3.32-4.56.85 2.6-3.6-2.29-3.8 4.28.78 2.99-3.4zm-1.25 3.75l-1.16 1.31-1.8-.33 1.05 1.77-.95 1.32 1.63-.3 1.2 1.28.07-1.7L36.5 31l-1.84-.87-.13-1.74z" clip-rule="evenodd"/>
  <path fill="#3C5142" d="M7.23 8.44h.56c.44 0 .66-.25.66-.74 0-.2-.05-.35-.16-.47a.56.56 0 00-.44-.19.6.6 0 00-.41.16.5.5 0 00-.18.39H6.08a1.52 1.52 0 01.85-1.39c.26-.13.56-.2.88-.2.57 0 1.01.15 1.34.44.32.3.49.7.49 1.23 0 .25-.07.49-.2.71-.14.22-.34.4-.6.54.28.11.5.29.65.51.15.23.23.51.23.85 0 .52-.18.94-.53 1.25a2 2 0 01-1.38.47c-.34 0-.65-.07-.94-.22-.28-.14-.5-.35-.65-.6A1.75 1.75 0 016 10.3h1.2c0 .18.05.33.18.46s.28.2.47.2c.2 0 .37-.07.5-.2.12-.13.18-.3.18-.5 0-.3-.06-.51-.19-.63a.74.74 0 00-.53-.19h-.58v-1zM13.87 9.54c0 .78-.16 1.4-.47 1.82-.31.43-.75.64-1.31.64-.57 0-1.01-.22-1.32-.65a3.06 3.06 0 01-.47-1.81V8.47c0-.79.15-1.4.46-1.82.32-.43.75-.65 1.32-.65.57 0 1 .22 1.32.65.31.43.47 1.04.47 1.82v1.07zM12.68 8.3c0-.42-.05-.74-.14-.94-.1-.21-.25-.31-.46-.31-.2 0-.35.1-.44.28-.1.2-.15.49-.15.88V9.7c0 .43.05.75.14.96.1.2.25.3.46.3.2 0 .35-.1.44-.3.1-.2.15-.5.15-.92V8.3zM18.03 9.54c0 .78-.15 1.4-.46 1.82-.31.43-.75.64-1.31.64-.57 0-1.01-.22-1.33-.65a3.06 3.06 0 01-.46-1.81V8.47c0-.79.15-1.4.46-1.82.31-.43.75-.65 1.32-.65.57 0 1 .22 1.32.65.3.43.46 1.04.46 1.82v1.07zM16.85 8.3c0-.42-.05-.74-.14-.94-.1-.21-.25-.31-.46-.31-.2 0-.35.1-.45.28-.09.2-.14.49-.15.88V9.7c0 .43.05.75.15.96.1.2.25.3.46.3.2 0 .35-.1.44-.3.1-.2.15-.5.15-.92V8.3zM20.8 8.6H22v1.17h-1.2v1.56h-1.1V9.77h-1.2V8.6h1.2V7.09h1.1V8.6z"/>
</svg>
