<svg xmlns="http://www.w3.org/2000/svg" fill="none" viewBox="0 0 48 48">
  <path fill="#A9C038" d="M34.76 16.35a13.2 13.2 0 11-8.56-5.37l-1.3 7.65a5.45 5.45 0 103.54 2.21l6.32-4.49z" opacity=".35"/>
  <path fill="#2E2E2E" fill-rule="evenodd" d="M27.62 17.52l7.8 3.36 6.16 20.67-10.81-2.97-6.75 2.67-7.83-2.68-9.8 3.05 5.15-16.5 1.52.47-.14.47.33-.12.53 1.51-1.45.5L8.82 39.2l6.68-2.08 1.13-6.55 1.57.28-1.1 6.36 6.1 2.08v-9.87l-.46-.33.93-1.3.44.31 4.5-1.8-.99-8.77zm1.18 10.41l-4 1.61v9.68l5.06-2-1.06-9.29zm2.66 9.18l7.76 2.14-2.96-9.92-5.86-1.47 1.06 9.25zM30.2 26.16l5.52 1.39-1.64-5.5-4.57-1.97.7 6.08z" clip-rule="evenodd"/>
  <path fill="#3C5142" fill-rule="evenodd" d="M18.74 8.29c-4.67.14-8.4 4.24-8.24 9.25.1 3.39 2.39 6.98 4.8 9.82a41.14 41.14 0 004.16 4.24l.87-.89c.83-.88 1.93-2.13 3.03-3.6 2.23-2.98 4.29-6.7 4.18-10.09-.15-5.01-4.12-8.88-8.8-8.73zm.75 24.39l-.5.62v-.01a4.02 4.02 0 01-.12-.09 25.88 25.88 0 01-1.42-1.27 42.73 42.73 0 01-3.38-3.54c-2.43-2.87-5.05-6.83-5.17-10.8-.18-5.82 4.16-10.73 9.8-10.9 5.63-.18 10.26 4.46 10.44 10.28.12 3.97-2.24 8.08-4.5 11.1a42.73 42.73 0 01-4.57 5.17l-.03.02-.55-.58zm0 0l.55.59-.51.46-.54-.43.5-.62zm-.57-18.8a3.3 3.3 0 00-3.1 3.5 3.3 3.3 0 003.3 3.3 3.3 3.3 0 003.1-3.5 3.3 3.3 0 00-3.3-3.3zm-4.7 3.55a4.9 4.9 0 014.65-5.15 4.9 4.9 0 014.95 4.86 4.9 4.9 0 01-4.65 5.14 4.9 4.9 0 01-4.94-4.85z" clip-rule="evenodd"/>
</svg>
