<svg xmlns="http://www.w3.org/2000/svg" fill="none" viewBox="0 0 48 48">
  <path fill="#E5EAD0" d="M10.26 7.3h2.42c6.91.02 12.5 5.64 12.5 12.55l-.04 21.35-14.94-8.05.06-25.85z"/>
  <path fill="#2E2E2E" fill-rule="evenodd" d="M24.13 5L39 10.8v19.65c0 2.02-1.1 3.73-2.52 5.1a21.56 21.56 0 01-5.11 3.48 43.33 43.33 0 01-7.1 2.84l-.12.04h-.04l-.01.01-.27-.98-.29.98h-.01l-.03-.02a19.07 19.07 0 01-.58-.18 43.7 43.7 0 01-6.47-2.73 21.4 21.4 0 01-4.99-3.49C10.07 34.13 9 32.43 9 30.45V10.8L24.13 5zm-.3 35.94l-.29.98.28.08.28-.08-.27-.98zm0-1.06a30.02 30.02 0 001.87-.63 41.3 41.3 0 004.75-2.03 19.6 19.6 0 004.63-3.13c1.23-1.2 1.9-2.41 1.9-3.64V12.2L24.12 7.18l-13.1 5.03v18.24c0 1.2.65 2.41 1.85 3.6a19.44 19.44 0 004.52 3.13 40.67 40.67 0 006.44 2.7z" clip-rule="evenodd"/>
  <path fill="#3C5142" fill-rule="evenodd" d="M24.07 13L32 16.34v7.9h-1.91v-6.53l-6.03-2.54-6.15 2.55v9.61c0 .62.4 1.32 1.26 2.07.83.73 1.93 1.35 2.91 1.81a21.16 21.16 0 002.08.84l.02.01h.01l-.28.97-.28.97h-.01a4.74 4.74 0 01-.18-.07 18.76 18.76 0 01-2.14-.87 14.9 14.9 0 01-3.35-2.1c-1-.87-1.95-2.09-1.95-3.63V16.34L24.07 13z" clip-rule="evenodd"/>
  <path fill="#2E2E2E" fill-rule="evenodd" d="M33 27.26L27.29 32 24 29.61l1.34-1.34 1.86 1.35L31.56 26 33 27.26z" clip-rule="evenodd"/>
</svg>
